# xmcd
#
# Track frame offsets: 
#        150
#        22185
#        37279
#        55674
#        73922
#        86866
#        96957
#        116549
#        127775
#        151812
#        164701
#        182319
#        197088
#        211001
#        230687
#        251175
#        265448
#        279556
#
# Disc length: 4048 seconds
#
# Revision: 0
# Processed by: cddbd v1.5.2PL0 Copyright (c) Steve Scherf et al.
# Submitted via: ExactAudioCopy v0.99pb5
#
DISCID=0b0fce12
DTITLE=Pyhimys - Vieras
DYEAR=2010
DGENRE=Rap
TTITLE0=Punainen tupa ja pernamaa
TTITLE1=Kolme - Neljä (feat. Llapsi)
TTITLE2=Helvetin kaupunki (feat. Tony Stereo)
TTITLE3=Suuri präpsota (feat. Saurus)
TTITLE4=Johda mua harhaan (feat. MG)
TTITLE5=Aamupahvit (feat. Juno)
TTITLE6=Jee! (feat. Edorf and Haamu)
TTITLE7=Automaattiaseita - Jalkapalloa (feat. Matinpoika)
TTITLE8=7 puupäätä (feat. Asa)
TTITLE9=Imperatiivi (feat. Paleface)
TTITLE10=Tele-telepatiaa (feat. Heinis and Laineen Kasperi)
TTITLE11=Pisnesmiäs (feat. Opaali)
TTITLE12=Haistakaa vittu! (feat. Steen1)
TTITLE13=Päivän lööppi (feat. Solonen and J-P)
TTITLE14=Siipirikko (feat. Ruudolf and Heikki Kuula)
TTITLE15=Ysikuus (feat. Jonde)
TTITLE16=Mopolla motarille
TTITLE17=Varmageddon (feat. Huge L, Tommi Shock and Armo Murha)
EXTD=
EXTT0=
EXTT1=
EXTT2=
EXTT3=
EXTT4=
EXTT5=
EXTT6=
EXTT7=
EXTT8=
EXTT9=
EXTT10=
EXTT11=
EXTT12=
EXTT13=
EXTT14=
EXTT15=
EXTT16=
EXTT17=
PLAYORDER=
